<?xml version="1.0" standalone="no"?><!DOCTYPE svg PUBLIC "-//W3C//DTD SVG 1.1//EN" "http://www.w3.org/Graphics/SVG/1.1/DTD/svg11.dtd"><svg t="1557719612706" class="icon" style="" viewBox="0 0 1137 1024" version="1.1" xmlns="http://www.w3.org/2000/svg" p-id="7768" xmlns:xlink="http://www.w3.org/1999/xlink" width="222.0703125" height="200"><defs><style type="text/css"></style></defs><path d="M224.711111 170.666667L227.555556 687.502222h458.353777L759.352889 796.444444H455.111111l-142.222222 227.555556L170.666667 796.444444H0V170.666667h224.711111z" fill="#ffffff" p-id="7769"></path><path d="M1024 625.777778l-142.222222 227.555555-142.222222-227.555555H284.444444V0h853.333334v625.777778h-113.777778z m-284.444444-284.444445a56.888889 56.888889 0 1 0 0-113.777777 56.888889 56.888889 0 0 0 0 113.777777z m227.555555 0a56.888889 56.888889 0 1 0 0-113.777777 56.888889 56.888889 0 0 0 0 113.777777zM512 341.333333a56.888889 56.888889 0 1 0 0-113.777777 56.888889 56.888889 0 0 0 0 113.777777z" fill="#ffffff" p-id="7770"></path></svg>