<?xml version="1.0" standalone="no"?><!DOCTYPE svg PUBLIC "-//W3C//DTD SVG 1.1//EN" "http://www.w3.org/Graphics/SVG/1.1/DTD/svg11.dtd"><svg t="1557719812226" class="icon" style="" viewBox="0 0 1025 1024" version="1.1" xmlns="http://www.w3.org/2000/svg" p-id="3932" xmlns:xlink="http://www.w3.org/1999/xlink" width="200.1953125" height="200"><defs><style type="text/css"></style></defs><path d="M112.9728 923.89888c-16.69632 0-30.27968-13.48096-30.27968-30.04416l0-73.63584c0-73.54368 22.2464-144.35328 64.3328-204.75904 41.10336-58.98752 98.17088-104.20224 165.02272-130.7392l11.00288-4.37248-9.33376-7.28576c-52.60288-41.05216-82.77504-102.4-82.77504-168.31488 0-118.07232 96.72192-214.12864 215.59808-214.12864s215.59808 96.06144 215.59808 214.12864c0 65.91488-30.17216 127.26272-82.76992 168.32l-9.33376 7.28576 11.00288 4.37248c66.86208 26.53696 123.92448 71.73632 165.0176 130.71872 42.09152 60.40576 64.3328 131.22048 64.3328 204.7744l0 73.64096c0 16.55808-13.58336 30.03904-30.27968 30.03904L112.9728 923.89888 112.9728 923.89888zM863.18592 813.43488c-0.3584-20.15744 22.22592-218.65984-143.39584-307.47136-22.38976-15.30368-28.71296-17.35168-28.71296-29.76768 0-12.1088 8.09984-22.98368 20.62848-27.70432l0.2048-0.0768 0.19456-0.09216c116.56192-124.48256-22.31808-271.68256-43.73504-281.07264-3.49696-5.65248-4.28032-6.88128-1.83296-2.9696 97.00352 1.65888 175.43168 80.56832 175.43168 177.32608 0 43.89376-16.49664 86.13376-46.44352 118.93248l-5.97504 6.54848 7.8848 4.06016c96.05632 49.41824 155.7248 147.23584 155.71968 255.28832l0 56.96c0 16.55808-13.57824 30.0288-30.27456 30.0288L863.18592 813.43488 863.18592 813.43488z" p-id="3933" fill="#ffffff"></path></svg>